<svg width="29" height="30" viewBox="0 0 29 30" fill="none" xmlns="http://www.w3.org/2000/svg">
<path d="M0.116333 0.380859L0.277146 20.0226C1.41313 19.8658 3.06036 19.5481 4.20888 19.2582C0.32752 13.1096 1.10646 7.32256 4.35086 4.14227C7.59981 0.957386 13.2184 0.515273 18.4697 4.58687C18.7625 3.99018 19.0998 3.20458 19.4856 2.40718C19.8167 1.72349 20.1918 1.03701 20.6304 0.424272L0.116333 0.380859ZM10.6949 2.73837C10.5183 2.73819 10.3439 2.7431 10.1708 2.75351L15.8092 6.09872L16.6248 4.64935C14.5668 3.32459 12.5389 2.74001 10.6949 2.73837ZM7.78108 3.2644C6.78327 3.645 5.89057 4.21983 5.14366 4.95209C3.94623 6.12585 3.10505 7.72162 2.81261 9.6142C5.55574 10.0782 7.5992 11.9741 7.80772 14.5167C8.09108 17.9748 12.088 20.6991 15.1111 20.3651C19.1278 19.9209 20.642 21.9215 21.2831 24.9629C21.9806 28.2727 25.0576 29.7588 28.9423 28.9287C25.9049 27.9866 23.3037 26.3995 23.3323 22.7018C23.3609 19.004 21.2216 16.8996 18.3505 16.7208C14.7445 16.4965 13.6142 14.1494 13.4311 10.9991C13.3009 8.76097 10.9019 5.21292 7.7812 3.26428L7.78108 3.2644ZM2.69902 11.1355C2.7029 13.0976 3.26332 15.3044 4.55515 17.6443L5.90613 16.842L2.69902 11.1355Z" fill="white"/>
</svg>
